<?xml version="1.0" encoding="UTF-8" standalone="no"?>
<svg
   xmlns="http://www.w3.org/2000/svg"
   style="fill:none;stroke:#09328b;stroke-width:1.5;stroke-linecap:round;stroke-linejoin:round"
   version="1.1"
   viewBox="0 0 27.013689 29.914951"
   height="29.914951"
   width="27.013689">
  <path
     d="M 1.3752054,7.8892095 13.506845,14.906939 V 28.900708 L 0.76503598,21.68037 Z"
     style="opacity:1;fill:#09328b;fill-opacity:1;stroke:none;stroke-width:2;stroke-linecap:round;stroke-linejoin:round;stroke-miterlimit:4;stroke-dasharray:none;stroke-opacity:1" />
  <path
     style="opacity:1;fill:#c5cfe4;fill-opacity:1;stroke:none;stroke-width:2;stroke-linecap:round;stroke-linejoin:round;stroke-miterlimit:4;stroke-dasharray:none;stroke-opacity:1"
     d="m 25.638485,7.8892094 -12.13164,7.0177296 v 13.99377 L 26.248654,21.68037 Z"
      />
  <path
     d="M 1.3752054,7.8892094 13.518557,14.886653 25.637517,7.8897684 13.013615,0.46520743 Z"
     style="opacity:1;fill:#c5cfe4;fill-opacity:1;stroke:none;stroke-width:2;stroke-linecap:round;stroke-linejoin:round;stroke-miterlimit:4;stroke-dasharray:none;stroke-opacity:1" />
  <path
     d="M 13.507812 0 C 12.854971 0 12.201152 0.16870676 11.617188 0.50585938 L 1.8925781 6.0625 A 1.0001 1.0001 0 0 0 1.890625 6.0644531 C 0.7238826 6.7380725 0.00138185 7.9867511 0 9.3339844 L 0 20.451172 A 1.0001 1.0001 0 0 0 0 20.453125 C 0.00138209 21.800358 0.72388591 23.04904 1.890625 23.722656 A 1.0001 1.0001 0 0 0 1.8925781 23.724609 L 11.621094 29.283203 C 12.788349 29.955299 14.22983 29.954865 15.396484 29.28125 L 25.121094 23.724609 A 1.0001 1.0001 0 0 0 25.125 23.722656 C 26.291739 23.04904 27.01229 21.800358 27.013672 20.453125 A 1.0001 1.0001 0 0 0 27.013672 20.451172 L 27.013672 9.3339844 C 27.012299 7.9867512 26.291739 6.7380696 25.125 6.0644531 A 1.0001 1.0001 0 0 0 25.121094 6.0625 L 15.396484 0.50585938 C 14.812519 0.16870676 14.160655 0 13.507812 0 z M 13.507812 2 C 13.81466 2 14.120532 2.0789599 14.396484 2.2382812 A 1.0001 1.0001 0 0 0 14.400391 2.2402344 L 23.962891 7.7050781 L 19.767578 10.130859 L 9.3359375 4.1132812 L 12.613281 2.2402344 A 1.0001 1.0001 0 0 0 12.617188 2.2382812 C 12.89314 2.0789599 13.200965 2 13.507812 2 z M 7.3242188 5.2636719 L 17.767578 11.287109 L 13.507812 13.75 L 3.0527344 7.7050781 L 7.3242188 5.2636719 z M 2 9.4042969 L 12.507812 15.482422 L 12.507812 27.486328 L 2.890625 21.990234 C 2.3392906 21.671922 2.0006531 21.087797 2 20.451172 L 2 9.4042969 z M 25.013672 9.4042969 L 25.013672 20.451172 C 25.01302 21.086842 24.676819 21.66965 24.126953 21.988281 L 14.507812 27.486328 L 14.507812 15.480469 L 25.013672 9.4042969 z "
     style="color:#000000;font-style:normal;font-variant:normal;font-weight:normal;font-stretch:normal;font-size:medium;line-height:normal;font-family:sans-serif;font-variant-ligatures:normal;font-variant-position:normal;font-variant-caps:normal;font-variant-numeric:normal;font-variant-alternates:normal;font-feature-settings:normal;text-indent:0;text-align:start;text-decoration:none;text-decoration-line:none;text-decoration-style:solid;text-decoration-color:#000000;letter-spacing:normal;word-spacing:normal;text-transform:none;writing-mode:lr-tb;direction:ltr;text-orientation:mixed;dominant-baseline:auto;baseline-shift:baseline;text-anchor:start;white-space:normal;shape-padding:0;clip-rule:nonzero;display:inline;overflow:visible;visibility:visible;opacity:1;isolation:auto;mix-blend-mode:normal;color-interpolation:sRGB;color-interpolation-filters:linearRGB;solid-color:#000000;solid-opacity:1;vector-effect:none;fill:#000000;fill-opacity:1;fill-rule:nonzero;stroke:none;stroke-width:2;stroke-linecap:round;stroke-linejoin:miter;stroke-miterlimit:4;stroke-dasharray:none;stroke-dashoffset:0;stroke-opacity:1;color-rendering:auto;image-rendering:auto;shape-rendering:auto;text-rendering:auto;enable-background:accumulate" />
</svg>
