<?xml version="1.0" encoding="UTF-8" standalone="no"?>
<svg
   xmlns="http://www.w3.org/2000/svg"
   version="1.1"
   viewBox="0 0 5.3017998 7.9375"
   height="7.9375mm"
   width="5.3017998mm"
   style="fill:currentColor">
  <path
     d="m 2.6510429,0.2414461 c -1.3303208,0 -2.40875963,1.0784388 -2.40875963,2.408756 0,1.3303263 2.40875963,4.8581977 2.40875963,4.8581977 0,0 2.4087587,-3.5278714 2.4087587,-4.8581977 0,-1.3303172 -1.0784379,-2.408756 -2.4087587,-2.408756 z m 0,1.7761122 c 0.3494016,0 0.6326484,0.2832441 0.6326438,0.6326438 C 3.2836739,2.9995926 3.0004316,3.2828276 2.6510429,3.2828184 2.3016652,3.2828093 2.0184421,2.9995835 2.0184293,2.6502021 2.0184247,2.3008207 2.3016533,2.0175766 2.6510429,2.0175583 Z"
     style="fill:#09328b;fill-opacity:1;stroke-width:0" />
  <path
     style="opacity:1;fill:#00a9ce;fill-opacity:1;stroke:none;stroke-width:0.52445948;stroke-miterlimit:4;stroke-dasharray:none;stroke-opacity:1"
     d="m 2.6508815,0.24144139 c -0.8992021,0 -1.68208594,0.49375619 -2.0958728,1.22393291 l 1.540916,0.8875525 C 2.2026191,2.1542932 2.4096183,2.0175051 2.6508815,2.0174925 c 0.3494016,0 0.6330245,0.283147 0.6330199,0.6325467 -4.6e-6,0.1220165 -0.036671,0.2350157 -0.096514,0.3316494 l 1.5380772,0.88566 C 4.9259852,3.3913324 5.0599525,2.9599333 5.0599525,2.6500392 c 0,-1.3303171 -1.0787503,-2.40859781 -2.409071,-2.40859781 z"
      />
  <path
     d="M 2.6517936,4.7109613e-6 C 1.1905605,4.7109613e-6 -4.0494107e-7,1.1887822 -4.0494107e-7,2.6500098 -4.0494107e-7,3.0556958 0.16544536,3.5371229 0.39696341,4.0679973 0.62848237,4.5988809 0.9335333,5.1698461 1.237384,5.6987704 1.8450853,6.7566283 2.4515233,7.6442541 2.4515233,7.6442541 L 2.6517936,7.9375049 2.850276,7.6442541 c 0,0 0.6082259,-0.8876258 1.2159273,-1.9454837 C 4.370054,5.1698461 4.6733169,4.5988809 4.9048349,4.0679973 5.1363539,3.5371229 5.3017997,3.0556958 5.3017997,2.6500098 5.3017997,1.1887822 4.1130267,4.7109613e-6 2.6517936,4.7109613e-6 Z m 0,0.4828003890387 c 1.1994086,0 2.1654232,0.9678072 2.1654232,2.1672047 0,0.2594863 -0.1357133,0.7183275 -0.3558368,1.2230821 C 4.2412556,4.3778465 3.9443318,4.9380451 3.6459926,5.4573748 3.1491288,6.3222865 2.8043626,6.8250453 2.6517936,7.0523876 2.4994508,6.825384 2.1546672,6.3226527 1.6575947,5.4573748 1.3592555,4.9380451 1.0605436,4.3778465 0.84041925,3.8730919 0.62029578,3.3683373 0.4845825,2.9094961 0.4845825,2.6500098 c 0,-1.1993975 0.9678026,-2.1672047 2.1672111,-2.1672047 z m 0,1.2928174 C 2.1714954,1.7756408 1.7756046,2.169718 1.775611,2.6500098 1.7756284,3.1303017 2.1715082,3.5243972 2.6517936,3.5244063 3.1320974,3.5244246 3.5261709,3.1303108 3.5261883,2.6500098 3.5261947,2.1696997 3.1321065,1.7756225 2.6517936,1.7756225 Z m 0,0.4845765 c 0.2184902,0 0.3898145,0.1713307 0.3898118,0.3898108 -8.2e-6,0.2184801 -0.1713381,0.38982 -0.3898118,0.3898109 -0.21847,0 -0.3915924,-0.1713308 -0.3915997,-0.3898109 C 2.2601902,2.431548 2.4333126,2.2602173 2.6517936,2.260199 Z"
     style="color:#000000;font-style:normal;font-variant:normal;font-weight:normal;font-stretch:normal;font-size:medium;line-height:normal;font-family:sans-serif;font-variant-ligatures:normal;font-variant-position:normal;font-variant-caps:normal;font-variant-numeric:normal;font-variant-alternates:normal;font-feature-settings:normal;text-indent:0;text-align:start;text-decoration:none;text-decoration-line:none;text-decoration-style:solid;text-decoration-color:#000000;letter-spacing:normal;word-spacing:normal;text-transform:none;writing-mode:lr-tb;direction:ltr;text-orientation:mixed;dominant-baseline:auto;baseline-shift:baseline;text-anchor:start;white-space:normal;shape-padding:0;clip-rule:nonzero;display:inline;overflow:visible;visibility:visible;opacity:1;isolation:auto;mix-blend-mode:normal;color-interpolation:sRGB;color-interpolation-filters:linearRGB;solid-color:#000000;solid-opacity:1;vector-effect:none;fill:#000000;fill-opacity:1;fill-rule:nonzero;stroke:none;stroke-width:0.4844636;stroke-linecap:butt;stroke-linejoin:miter;stroke-miterlimit:4;stroke-dasharray:none;stroke-dashoffset:0;stroke-opacity:1;color-rendering:auto;image-rendering:auto;shape-rendering:auto;text-rendering:auto;enable-background:accumulate"
      />
</svg>
